<svg width="200" height="200" viewBox="0 0 200 200" xmlns="http://www.w3.org/2000/svg">
  <defs>
    <linearGradient id="grad1" x1="0%" y1="0%" x2="100%" y2="100%">
      <stop offset="0%" style="stop-color:#6A5ACD;stop-opacity:1" />
      <stop offset="100%" style="stop-color:#00CED1;stop-opacity:1" />
    </linearGradient>
  </defs>
  <rect x="0" y="0" width="200" height="200" fill="white"/>
  <g transform="translate(100,100)">
    <path d="M -60 0 C -60 -40 -30 -70 0 -80 C 30 -70 60 -40 60 0 L 0 80 Z" fill="url(#grad1)"/>
    
    <circle cx="-25" cy="-20" r="8" fill="white" opacity="0.7"/>
    <circle cx="25" cy="-20" r="8" fill="white" opacity="0.7"/>
    <circle cx="0" cy="20" r="8" fill="white" opacity="0.7"/>
    
    <line x1="-25" y1="-20" x2="0" y2="20" stroke="white" stroke-width="3" opacity="0.5"/>
    <line x1="25" y1="-20" x2="0" y2="20" stroke="white" stroke-width="3" opacity="0.5"/>
    <line x1="-25" y1="-20" x2="25" y2="-20" stroke="white" stroke-width="3" opacity="0.5"/>
    
    <path d="M 0 -50 V -65 A 15 15 0 0 1 30 -65 V -50 H 20 V -55 H 10 V -50 Z M -10 -50 H -20 V -65 A 15 15 0 0 1 0 -65 V -50 Z" fill="white"/>
    <rect x="-10" y="-45" width="20" height="15" fill="white"/>
    <circle cx="0" cy="-35" r="3" fill="#6A5ACD"/>
  </g>
</svg>